<mxfile host="Electron" agent="Mozilla/5.0 (Windows NT 10.0; Win64; x64) AppleWebKit/537.36 (KHTML, like Gecko) draw.io/27.0.9 Chrome/134.0.6998.205 Electron/35.4.0 Safari/537.36" version="27.0.9">
  <diagram name="Page-1" id="kFvEXd9xpwUei9YfleRY">
    <mxGraphModel dx="1892" dy="1718" grid="1" gridSize="10" guides="1" tooltips="1" connect="1" arrows="1" fold="1" page="1" pageScale="1" pageWidth="850" pageHeight="1100" math="0" shadow="0">
      <root>
        <mxCell id="0" />
        <mxCell id="1" parent="0" />
        <mxCell id="5ZUfTxJAtZguxujz5F0--2" value="Data Flow Daigram" style="text;html=1;align=center;verticalAlign=middle;whiteSpace=wrap;rounded=0;fontStyle=1;fontSize=20;fillColor=#a20025;strokeColor=#6F0000;fontColor=#ffffff;" parent="1" vertex="1">
          <mxGeometry x="-350" y="-30" width="200" height="30" as="geometry" />
        </mxCell>
        <mxCell id="5ZUfTxJAtZguxujz5F0--3" value="" style="rounded=0;whiteSpace=wrap;html=1;fillColor=none;dashed=1;" parent="1" vertex="1">
          <mxGeometry x="-740" y="70" width="120" height="410" as="geometry" />
        </mxCell>
        <mxCell id="5ZUfTxJAtZguxujz5F0--4" value="Sources" style="rounded=1;whiteSpace=wrap;html=1;fontSize=17;strokeColor=none;fontStyle=1" parent="1" vertex="1">
          <mxGeometry x="-720" y="60" width="80" height="30" as="geometry" />
        </mxCell>
        <mxCell id="5ZUfTxJAtZguxujz5F0--18" style="edgeStyle=orthogonalEdgeStyle;rounded=0;orthogonalLoop=1;jettySize=auto;html=1;entryX=0;entryY=0.75;entryDx=0;entryDy=0;" parent="1" source="5ZUfTxJAtZguxujz5F0--5" target="5ZUfTxJAtZguxujz5F0--13" edge="1">
          <mxGeometry relative="1" as="geometry" />
        </mxCell>
        <mxCell id="5ZUfTxJAtZguxujz5F0--19" style="edgeStyle=orthogonalEdgeStyle;rounded=0;orthogonalLoop=1;jettySize=auto;html=1;entryX=0;entryY=0.75;entryDx=0;entryDy=0;" parent="1" source="5ZUfTxJAtZguxujz5F0--5" target="5ZUfTxJAtZguxujz5F0--11" edge="1">
          <mxGeometry relative="1" as="geometry" />
        </mxCell>
        <mxCell id="5ZUfTxJAtZguxujz5F0--21" style="edgeStyle=orthogonalEdgeStyle;rounded=0;orthogonalLoop=1;jettySize=auto;html=1;entryX=0;entryY=0.75;entryDx=0;entryDy=0;" parent="1" source="5ZUfTxJAtZguxujz5F0--5" target="5ZUfTxJAtZguxujz5F0--12" edge="1">
          <mxGeometry relative="1" as="geometry" />
        </mxCell>
        <mxCell id="5ZUfTxJAtZguxujz5F0--5" value="" style="image;aspect=fixed;html=1;points=[];align=center;fontSize=12;image=img/lib/azure2/general/Folder_Blank.svg;" parent="1" vertex="1">
          <mxGeometry x="-719" y="184" width="69" height="56.00000000000001" as="geometry" />
        </mxCell>
        <mxCell id="5ZUfTxJAtZguxujz5F0--25" style="edgeStyle=orthogonalEdgeStyle;rounded=0;orthogonalLoop=1;jettySize=auto;html=1;entryX=0;entryY=0.75;entryDx=0;entryDy=0;" parent="1" source="5ZUfTxJAtZguxujz5F0--6" target="5ZUfTxJAtZguxujz5F0--15" edge="1">
          <mxGeometry relative="1" as="geometry" />
        </mxCell>
        <mxCell id="5ZUfTxJAtZguxujz5F0--26" style="edgeStyle=orthogonalEdgeStyle;rounded=0;orthogonalLoop=1;jettySize=auto;html=1;entryX=0;entryY=0.5;entryDx=0;entryDy=0;" parent="1" source="5ZUfTxJAtZguxujz5F0--6" target="5ZUfTxJAtZguxujz5F0--16" edge="1">
          <mxGeometry relative="1" as="geometry" />
        </mxCell>
        <mxCell id="5ZUfTxJAtZguxujz5F0--27" style="edgeStyle=orthogonalEdgeStyle;rounded=0;orthogonalLoop=1;jettySize=auto;html=1;entryX=0;entryY=0.75;entryDx=0;entryDy=0;" parent="1" source="5ZUfTxJAtZguxujz5F0--6" target="5ZUfTxJAtZguxujz5F0--14" edge="1">
          <mxGeometry relative="1" as="geometry" />
        </mxCell>
        <mxCell id="5ZUfTxJAtZguxujz5F0--6" value="" style="image;aspect=fixed;html=1;points=[];align=center;fontSize=12;image=img/lib/azure2/general/Folder_Blank.svg;" parent="1" vertex="1">
          <mxGeometry x="-720" y="370" width="69" height="56.00000000000001" as="geometry" />
        </mxCell>
        <mxCell id="5ZUfTxJAtZguxujz5F0--7" value="CRM" style="text;html=1;align=center;verticalAlign=middle;whiteSpace=wrap;rounded=0;fontStyle=1" parent="1" vertex="1">
          <mxGeometry x="-709" y="240" width="60" height="30" as="geometry" />
        </mxCell>
        <mxCell id="5ZUfTxJAtZguxujz5F0--8" value="ERP" style="text;html=1;align=center;verticalAlign=middle;whiteSpace=wrap;rounded=0;fontStyle=1" parent="1" vertex="1">
          <mxGeometry x="-709" y="420" width="60" height="30" as="geometry" />
        </mxCell>
        <mxCell id="5ZUfTxJAtZguxujz5F0--9" value="" style="rounded=1;whiteSpace=wrap;html=1;fillColor=none;" parent="1" vertex="1">
          <mxGeometry x="-550" y="100" width="170" height="380" as="geometry" />
        </mxCell>
        <mxCell id="5ZUfTxJAtZguxujz5F0--10" value="Bronze Layer" style="rounded=1;whiteSpace=wrap;html=1;fillColor=#a0522d;strokeColor=#6D1F00;fontColor=default;fontStyle=1" parent="1" vertex="1">
          <mxGeometry x="-530" y="60" width="130" height="30" as="geometry" />
        </mxCell>
        <mxCell id="5ZUfTxJAtZguxujz5F0--36" style="edgeStyle=orthogonalEdgeStyle;rounded=0;orthogonalLoop=1;jettySize=auto;html=1;" parent="1" source="5ZUfTxJAtZguxujz5F0--11" target="5ZUfTxJAtZguxujz5F0--30" edge="1">
          <mxGeometry relative="1" as="geometry" />
        </mxCell>
        <mxCell id="5ZUfTxJAtZguxujz5F0--11" value="&lt;font&gt;crm_sales_details&lt;/font&gt;" style="rounded=1;whiteSpace=wrap;html=1;fillColor=#a0522d;fontColor=#070707;strokeColor=#6D1F00;fontStyle=1" parent="1" vertex="1">
          <mxGeometry x="-530" y="130" width="140" height="30" as="geometry" />
        </mxCell>
        <mxCell id="5ZUfTxJAtZguxujz5F0--37" style="edgeStyle=orthogonalEdgeStyle;rounded=0;orthogonalLoop=1;jettySize=auto;html=1;entryX=0;entryY=0.5;entryDx=0;entryDy=0;" parent="1" source="5ZUfTxJAtZguxujz5F0--12" target="5ZUfTxJAtZguxujz5F0--31" edge="1">
          <mxGeometry relative="1" as="geometry" />
        </mxCell>
        <mxCell id="5ZUfTxJAtZguxujz5F0--12" value="crm_cust_info" style="rounded=1;whiteSpace=wrap;html=1;fillColor=#a0522d;fontColor=#070707;strokeColor=#6D1F00;fontStyle=1" parent="1" vertex="1">
          <mxGeometry x="-530" y="190" width="140" height="30" as="geometry" />
        </mxCell>
        <mxCell id="5ZUfTxJAtZguxujz5F0--38" style="edgeStyle=orthogonalEdgeStyle;rounded=0;orthogonalLoop=1;jettySize=auto;html=1;" parent="1" source="5ZUfTxJAtZguxujz5F0--13" target="5ZUfTxJAtZguxujz5F0--32" edge="1">
          <mxGeometry relative="1" as="geometry" />
        </mxCell>
        <mxCell id="5ZUfTxJAtZguxujz5F0--13" value="crm_prd_info" style="rounded=1;whiteSpace=wrap;html=1;fillColor=#a0522d;fontColor=#070707;strokeColor=#6D1F00;fontStyle=1" parent="1" vertex="1">
          <mxGeometry x="-530" y="240" width="140" height="30" as="geometry" />
        </mxCell>
        <mxCell id="5ZUfTxJAtZguxujz5F0--41" style="edgeStyle=orthogonalEdgeStyle;rounded=0;orthogonalLoop=1;jettySize=auto;html=1;" parent="1" source="5ZUfTxJAtZguxujz5F0--14" target="5ZUfTxJAtZguxujz5F0--33" edge="1">
          <mxGeometry relative="1" as="geometry" />
        </mxCell>
        <mxCell id="5ZUfTxJAtZguxujz5F0--14" value="erp_px_cat_g1v2" style="rounded=1;whiteSpace=wrap;html=1;fillColor=#a0522d;fontColor=#070707;strokeColor=#6D1F00;fontStyle=1" parent="1" vertex="1">
          <mxGeometry x="-530" y="420" width="140" height="30" as="geometry" />
        </mxCell>
        <mxCell id="5ZUfTxJAtZguxujz5F0--40" style="edgeStyle=orthogonalEdgeStyle;rounded=0;orthogonalLoop=1;jettySize=auto;html=1;" parent="1" source="5ZUfTxJAtZguxujz5F0--15" target="5ZUfTxJAtZguxujz5F0--34" edge="1">
          <mxGeometry relative="1" as="geometry" />
        </mxCell>
        <mxCell id="5ZUfTxJAtZguxujz5F0--15" value="erp_loc_a101" style="rounded=1;whiteSpace=wrap;html=1;fillColor=#a0522d;fontColor=#070707;strokeColor=#6D1F00;fontStyle=1" parent="1" vertex="1">
          <mxGeometry x="-530" y="376" width="140" height="30" as="geometry" />
        </mxCell>
        <mxCell id="5ZUfTxJAtZguxujz5F0--39" style="edgeStyle=orthogonalEdgeStyle;rounded=0;orthogonalLoop=1;jettySize=auto;html=1;entryX=0;entryY=0.5;entryDx=0;entryDy=0;" parent="1" source="5ZUfTxJAtZguxujz5F0--16" target="5ZUfTxJAtZguxujz5F0--35" edge="1">
          <mxGeometry relative="1" as="geometry" />
        </mxCell>
        <mxCell id="5ZUfTxJAtZguxujz5F0--16" value="erp_cust_az12" style="rounded=1;whiteSpace=wrap;html=1;fillColor=#a0522d;fontColor=#070707;strokeColor=#6D1F00;fontStyle=1" parent="1" vertex="1">
          <mxGeometry x="-530" y="330" width="140" height="30" as="geometry" />
        </mxCell>
        <mxCell id="5ZUfTxJAtZguxujz5F0--28" value="" style="rounded=1;whiteSpace=wrap;html=1;fillColor=none;" parent="1" vertex="1">
          <mxGeometry x="-320" y="100" width="170" height="380" as="geometry" />
        </mxCell>
        <mxCell id="5ZUfTxJAtZguxujz5F0--29" value="Silver" style="rounded=1;whiteSpace=wrap;html=1;fillColor=#f5f5f5;strokeColor=#666666;fontStyle=1;gradientColor=#b3b3b3;" parent="1" vertex="1">
          <mxGeometry x="-300" y="60" width="130" height="30" as="geometry" />
        </mxCell>
        <mxCell id="5ZUfTxJAtZguxujz5F0--30" value="&lt;font&gt;crm_sales_details&lt;/font&gt;" style="rounded=1;whiteSpace=wrap;html=1;fillColor=#f5f5f5;strokeColor=#666666;fontStyle=1;gradientColor=#b3b3b3;" parent="1" vertex="1">
          <mxGeometry x="-300" y="130" width="140" height="30" as="geometry" />
        </mxCell>
        <mxCell id="5ZUfTxJAtZguxujz5F0--31" value="crm_cust_info" style="rounded=1;whiteSpace=wrap;html=1;fillColor=#f5f5f5;strokeColor=#666666;fontStyle=1;gradientColor=#b3b3b3;" parent="1" vertex="1">
          <mxGeometry x="-300" y="190" width="140" height="30" as="geometry" />
        </mxCell>
        <mxCell id="5ZUfTxJAtZguxujz5F0--32" value="crm_prd_info" style="rounded=1;whiteSpace=wrap;html=1;fillColor=#f5f5f5;strokeColor=#666666;fontStyle=1;gradientColor=#b3b3b3;" parent="1" vertex="1">
          <mxGeometry x="-300" y="240" width="140" height="30" as="geometry" />
        </mxCell>
        <mxCell id="5ZUfTxJAtZguxujz5F0--33" value="erp_px_cat_g1v2" style="rounded=1;whiteSpace=wrap;html=1;fillColor=#f5f5f5;strokeColor=#666666;fontStyle=1;gradientColor=#b3b3b3;" parent="1" vertex="1">
          <mxGeometry x="-300" y="420" width="140" height="30" as="geometry" />
        </mxCell>
        <mxCell id="5ZUfTxJAtZguxujz5F0--34" value="erp_loc_a101" style="rounded=1;whiteSpace=wrap;html=1;fillColor=#f5f5f5;strokeColor=#666666;fontStyle=1;gradientColor=#b3b3b3;" parent="1" vertex="1">
          <mxGeometry x="-300" y="376" width="140" height="30" as="geometry" />
        </mxCell>
        <mxCell id="5ZUfTxJAtZguxujz5F0--35" value="erp_cust_az12" style="rounded=1;whiteSpace=wrap;html=1;fillColor=#f5f5f5;strokeColor=#666666;fontStyle=1;gradientColor=#b3b3b3;" parent="1" vertex="1">
          <mxGeometry x="-300" y="330" width="140" height="30" as="geometry" />
        </mxCell>
        <mxCell id="5ZUfTxJAtZguxujz5F0--42" value="" style="rounded=1;whiteSpace=wrap;html=1;fillColor=none;" parent="1" vertex="1">
          <mxGeometry x="-60" y="100" width="170" height="380" as="geometry" />
        </mxCell>
        <mxCell id="5ZUfTxJAtZguxujz5F0--43" value="Gold" style="rounded=1;whiteSpace=wrap;html=1;fillColor=#ffcd28;strokeColor=#d79b00;fontStyle=1;gradientColor=#ffa500;" parent="1" vertex="1">
          <mxGeometry x="-30" y="60" width="120" height="30" as="geometry" />
        </mxCell>
        <mxCell id="5ZUfTxJAtZguxujz5F0--44" value="&lt;font&gt;fact_sales&lt;/font&gt;" style="rounded=1;whiteSpace=wrap;html=1;fillColor=#ffcd28;strokeColor=#d79b00;fontStyle=1;gradientColor=#ffa500;" parent="1" vertex="1">
          <mxGeometry x="-40" y="130" width="140" height="30" as="geometry" />
        </mxCell>
        <mxCell id="5ZUfTxJAtZguxujz5F0--45" value="dim_customers" style="rounded=1;whiteSpace=wrap;html=1;fillColor=#ffcd28;strokeColor=#d79b00;fontStyle=1;gradientColor=#ffa500;" parent="1" vertex="1">
          <mxGeometry x="-40" y="240" width="140" height="30" as="geometry" />
        </mxCell>
        <mxCell id="5ZUfTxJAtZguxujz5F0--46" value="dim_products" style="rounded=1;whiteSpace=wrap;html=1;fillColor=#ffcd28;strokeColor=#d79b00;fontStyle=1;gradientColor=#ffa500;" parent="1" vertex="1">
          <mxGeometry x="-40" y="360" width="140" height="30" as="geometry" />
        </mxCell>
        <mxCell id="5ZUfTxJAtZguxujz5F0--54" value="" style="endArrow=classic;html=1;rounded=0;entryX=0;entryY=0.5;entryDx=0;entryDy=0;jumpStyle=gap;" parent="1" source="5ZUfTxJAtZguxujz5F0--30" target="5ZUfTxJAtZguxujz5F0--44" edge="1">
          <mxGeometry width="50" height="50" relative="1" as="geometry">
            <mxPoint x="-170" y="230" as="sourcePoint" />
            <mxPoint x="-120" y="180" as="targetPoint" />
          </mxGeometry>
        </mxCell>
        <mxCell id="5ZUfTxJAtZguxujz5F0--55" value="" style="endArrow=classic;html=1;rounded=0;entryX=0;entryY=0.5;entryDx=0;entryDy=0;exitX=1;exitY=0.5;exitDx=0;exitDy=0;jumpStyle=gap;" parent="1" source="5ZUfTxJAtZguxujz5F0--31" target="5ZUfTxJAtZguxujz5F0--45" edge="1">
          <mxGeometry width="50" height="50" relative="1" as="geometry">
            <mxPoint x="-150" y="155" as="sourcePoint" />
            <mxPoint x="-30" y="155" as="targetPoint" />
            <Array as="points" />
          </mxGeometry>
        </mxCell>
        <mxCell id="5ZUfTxJAtZguxujz5F0--56" value="" style="endArrow=classic;html=1;rounded=0;exitX=1;exitY=0.25;exitDx=0;exitDy=0;jumpStyle=gap;" parent="1" source="5ZUfTxJAtZguxujz5F0--32" edge="1">
          <mxGeometry width="50" height="50" relative="1" as="geometry">
            <mxPoint x="-150" y="215" as="sourcePoint" />
            <mxPoint x="-40" y="370" as="targetPoint" />
            <Array as="points" />
          </mxGeometry>
        </mxCell>
        <mxCell id="5ZUfTxJAtZguxujz5F0--57" value="" style="endArrow=classic;html=1;rounded=0;exitX=1;exitY=0.5;exitDx=0;exitDy=0;jumpStyle=gap;" parent="1" source="5ZUfTxJAtZguxujz5F0--35" edge="1">
          <mxGeometry width="50" height="50" relative="1" as="geometry">
            <mxPoint x="-150" y="258" as="sourcePoint" />
            <mxPoint x="-40" y="250" as="targetPoint" />
            <Array as="points" />
          </mxGeometry>
        </mxCell>
        <mxCell id="5ZUfTxJAtZguxujz5F0--58" value="" style="endArrow=classic;html=1;rounded=0;exitX=1;exitY=0.25;exitDx=0;exitDy=0;jumpStyle=gap;" parent="1" source="5ZUfTxJAtZguxujz5F0--34" edge="1">
          <mxGeometry width="50" height="50" relative="1" as="geometry">
            <mxPoint x="-150" y="355" as="sourcePoint" />
            <mxPoint x="-40" y="250" as="targetPoint" />
            <Array as="points" />
          </mxGeometry>
        </mxCell>
        <mxCell id="5ZUfTxJAtZguxujz5F0--59" value="" style="endArrow=classic;html=1;rounded=0;exitX=1;exitY=0.25;exitDx=0;exitDy=0;entryX=0;entryY=0.25;entryDx=0;entryDy=0;jumpStyle=gap;" parent="1" target="5ZUfTxJAtZguxujz5F0--46" edge="1">
          <mxGeometry width="50" height="50" relative="1" as="geometry">
            <mxPoint x="-160" y="434" as="sourcePoint" />
            <mxPoint x="-40" y="370" as="targetPoint" />
            <Array as="points" />
          </mxGeometry>
        </mxCell>
      </root>
    </mxGraphModel>
  </diagram>
</mxfile>
